<svg width="24" height="22" viewBox="0 0 24 22" fill="none" xmlns="http://www.w3.org/2000/svg">
<path d="M24 16C24 17.4709 22.8042 18.6667 21.3333 18.6667H8.55417C7.84583 18.6667 7.16667 18.3875 6.66667 17.8875L0.3905 11.6084C0.140458 11.3584 0 11.0209 0 10.6667C0 10.3125 0.1405 9.97502 0.3905 9.72502L6.66667 3.44794C7.16667 2.94752 7.84583 2.66669 8.55417 2.66669H21.3333C22.8042 2.66669 24 3.86044 24 5.33335V16ZM11.2917 8.67085L13.2542 10.6667L11.2917 12.625C10.9042 13.0167 10.9042 13.65 11.2917 14.0042C11.6833 14.4292 12.3167 14.4292 12.6708 14.0042L14.6667 12.0792L16.625 14.0042C17.0167 14.4292 17.65 14.4292 18.0042 14.0042C18.4292 13.65 18.4292 13.0167 18.0042 12.625L16.0792 10.6667L18.0042 8.67085C18.4292 8.31669 18.4292 7.68335 18.0042 7.29169C17.65 6.90419 17.0167 6.90419 16.625 7.29169L14.6667 9.25419L12.6708 7.29169C12.3167 6.90419 11.6833 6.90419 11.2917 7.29169C10.9042 7.68335 10.9042 8.31669 11.2917 8.67085Z" fill="#333333"/>
</svg>
