<svg width="24" height="24" viewBox="0 0 24 24" fill="none" xmlns="http://www.w3.org/2000/svg">
<path d="M12.0001 1.71429C12.8798 1.71429 13.7258 2.05238 14.3631 2.65863C15.0005 3.26488 15.3804 4.0929 15.4244 4.97144L15.4287 5.14287H19.7144C19.9329 5.14311 20.143 5.22676 20.3019 5.37674C20.4607 5.52671 20.5563 5.73168 20.5691 5.94978C20.5819 6.16787 20.511 6.38262 20.3708 6.55015C20.2305 6.71768 20.0316 6.82535 19.8147 6.85115L19.7144 6.85715H18.9867L17.9753 19.3311C17.91 20.1361 17.5442 20.8869 16.9505 21.4344C16.3568 21.9818 15.5788 22.2858 14.7713 22.2857H9.229C8.42143 22.2858 7.64344 21.9818 7.04977 21.4344C6.4561 20.8869 6.09025 20.1361 6.025 19.3311L5.01271 6.85715H4.28585C4.07591 6.85712 3.87328 6.78005 3.71639 6.64054C3.55951 6.50103 3.45927 6.30879 3.43471 6.10029L3.42871 6.00001C3.42874 5.79007 3.50582 5.58743 3.64532 5.43055C3.78483 5.27366 3.97707 5.17343 4.18557 5.14887L4.28585 5.14287H8.57157C8.57157 4.23355 8.93279 3.36148 9.57577 2.7185C10.2188 2.07552 11.0908 1.71429 12.0001 1.71429V1.71429ZM10.0716 9.64286C9.91622 9.64287 9.76613 9.69913 9.64906 9.80124C9.53198 9.90334 9.45584 10.0444 9.43471 10.1983L9.42871 10.2857V17.1429L9.43471 17.2303C9.45588 17.3842 9.53204 17.5252 9.64911 17.6272C9.76619 17.7293 9.91625 17.7855 10.0716 17.7855C10.2269 17.7855 10.3769 17.7293 10.494 17.6272C10.6111 17.5252 10.6873 17.3842 10.7084 17.2303L10.7144 17.1429V10.2857L10.7084 10.1983C10.6873 10.0444 10.6112 9.90334 10.4941 9.80124C10.377 9.69913 10.2269 9.64287 10.0716 9.64286ZM13.9287 9.64286C13.7734 9.64287 13.6233 9.69913 13.5062 9.80124C13.3891 9.90334 13.313 10.0444 13.2919 10.1983L13.2859 10.2857V17.1429L13.2919 17.2303C13.313 17.3842 13.3892 17.5252 13.5063 17.6272C13.6233 17.7293 13.7734 17.7855 13.9287 17.7855C14.084 17.7855 14.2341 17.7293 14.3512 17.6272C14.4682 17.5252 14.5444 17.3842 14.5656 17.2303L14.5716 17.1429V10.2857L14.5656 10.1983C14.5444 10.0444 14.4683 9.90334 14.3512 9.80124C14.2341 9.69913 14.0841 9.64287 13.9287 9.64286ZM12.0001 3.42858C11.5676 3.42844 11.1511 3.59179 10.834 3.88586C10.5168 4.17994 10.3226 4.58302 10.2901 5.01429L10.2859 5.14287H13.7144L13.7101 5.01429C13.6777 4.58302 13.4834 4.17994 13.1663 3.88586C12.8492 3.59179 12.4326 3.42844 12.0001 3.42858V3.42858Z" fill="#333333"/>
</svg>
