<svg width="24" height="24" viewBox="0 0 24 24" fill="none" xmlns="http://www.w3.org/2000/svg">
<path d="M18.9998 20H4.99981C4.73459 20 4.48024 20.1053 4.2927 20.2929C4.10517 20.4804 3.99981 20.7348 3.99981 21C3.99981 21.2652 4.10517 21.5196 4.2927 21.7071C4.48024 21.8946 4.73459 22 4.99981 22H18.9998C19.265 22 19.5194 21.8946 19.7069 21.7071C19.8945 21.5196 19.9998 21.2652 19.9998 21C19.9998 20.7348 19.8945 20.4804 19.7069 20.2929C19.5194 20.1053 19.265 20 18.9998 20ZM4.99981 18H5.08981L9.25981 17.62C9.71661 17.5745 10.1438 17.3732 10.4698 17.05L19.4698 8.04998C19.8191 7.68095 20.0079 7.18849 19.9948 6.68052C19.9817 6.17254 19.7677 5.69049 19.3998 5.33998L16.6598 2.59998C16.3022 2.26408 15.8336 2.07134 15.3431 2.05843C14.8527 2.04553 14.3746 2.21335 13.9998 2.52998L4.99981 11.53C4.67657 11.8559 4.47531 12.2832 4.42981 12.74L3.99981 16.91C3.98634 17.0564 4.00534 17.2041 4.05547 17.3424C4.1056 17.4806 4.18561 17.6062 4.28981 17.71C4.38325 17.8027 4.49406 17.876 4.6159 17.9258C4.73774 17.9755 4.8682 18.0007 4.99981 18ZM15.2698 3.99998L17.9998 6.72998L15.9998 8.67998L13.3198 5.99998L15.2698 3.99998Z" fill="#333333"/>
</svg>
